PathFileType	4	(X/Y/Z)	Run_300 02
DataRate	CameraRate	NumFrames	NumMarkers	Units	OrigDataRate	OrigDataStartFrame	OrigNumFrames
100	100	4	45	mm	100	81	137
Frame#	Time	LASI			RASI			LPSI			RPSI			RTH1			RTH2			RTH3			LTH1			LTH2			LTH3			RTB1			RTB2			RTB3			RLMAL			RMMAL			LTB1			LTB2			LTB3			RCAL			RTOE			RMT5			LCAL			LTOE			LMT5			LACR			RACR			CLAV			C7			LPSH			RUA1			RUA2			RUA3			RLEL			RMEL			LUA1			LUA2			LUA3			LLEL			LMEL			RFAsuperior			RFAradius			RFAulna			LFAsuperior			LFAradius			LFAulna			
		X1	Y1	Z1	X2	Y2	Z2	X3	Y3	Z3	X4	Y4	Z4	X5	Y5	Z5	X6	Y6	Z6	X7	Y7	Z7	X8	Y8	Z8	X9	Y9	Z9	X10	Y10	Z10	X11	Y11	Z11	X12	Y12	Z12	X13	Y13	Z13	X14	Y14	Z14	X15	Y15	Z15	X16	Y16	Z16	X17	Y17	Z17	X18	Y18	Z18	X19	Y19	Z19	X20	Y20	Z20	X21	Y21	Z21	X22	Y22	Z22	X23	Y23	Z23	X24	Y24	Z24	X25	Y25	Z25	X26	Y26	Z26	X27	Y27	Z27	X28	Y28	Z28	X29	Y29	Z29	X30	Y30	Z30	X31	Y31	Z31	X32	Y32	Z32	X33	Y33	Z33	X34	Y34	Z34	X35	Y35	Z35	X36	Y36	Z36	X37	Y37	Z37	X38	Y38	Z38	X39	Y39	Z39	X40	Y40	Z40	X41	Y41	Z41	X42	Y42	Z42	X43	Y43	Z43	X44	Y44	Z44	X45	Y45	Z45	

81	1.26	946.834606	1013.591416	-425.74341	954.629807	1027.358088	-187.795413	779.73915	1050.99808	-353.9126	782.264981	1056.102557	-265.927869	922.69159	778.072153	-146.95644	1011.875344	732.856756	-185.092461	972.2724030000001	616.9677380000001	-191.92581	865.653534	789.092441	-466.840243	952.785333	689.151439	-470.967237	918.771582	590.3343149999999	-453.891069	1013.617896	379.37269	-263.675985	963.036148	332.131008	-217.800389	939.023658	209.224453	-268.993518	862.1851339999999	116.90504	-251.405576	883.05758	133.200896	-333.379385	850.872709	425.315942	-424.963234	733.3681800000001	492.852085	-433.828011	661.198715	409.060886	-401.754854	794.079615	97.421632	-315.645905	1020.408096	64.561792	-287.371579	944.230432	56.195966	-216.334983	505.414074	477.183882	-337.58063	512.7941049999999	258.937149	-384.665101	482.816831	322.038632	-441.745631	920.77364	1533.607137	-447.292307	926.479499	1489.944071	-131.55983	992.245888	1441.510764	-269.497639	884.900289	1537.807237	-287.60547	836.8162170000001	1498.367272	-457.389961	868.919132	1346.291504	-41.119808	782.084172	1309.404442	-49.170626	782.225868	1256.045642	-2.866497	787.1739710000001	1190.768138	23.350993	752.8143710000001	1177.666377	-56.281695	831.731816	1431.906092	-528.582303	760.068318	1365.436921	-530.249652	772.954335	1331.361887	-597.041389	768.141221	1259.021074	-632.818564	724.1786970000001	1238.121318	-554.421055	831.0822920000001	1128.526178	0.641544	1013.306378	1130.535798	-89.043378	991.380512	1066.77574	-77.301208	826.890248	1192.104652	-592.4206799999999	969.2095399999999	1218.361489	-493.710747	970.21682	1154.878487	-521.112173	
82	1.27	942.809284	1010.208635	-426.40208	951.3131100000001	1024.889853	-186.612414	776.134872	1048.477088	-353.125684	780.7390779999999	1053.761722	-266.966023	915.771515	774.332889	-146.238448	1003.699903	726.891326	-185.092495	960.649105	611.6372280000001	-191.308377	869.562504	787.3770060000001	-466.305493	962.895041	691.842771	-470.647506	933.941644	592.2391720000001	-454.534202	994.599466	373.222426	-264.618742	942.97763	327.569005	-218.020823	913.148041	206.065547	-269.02242	832.442949	117.135996	-250.659674	853.6713109999999	133.039749	-332.748718	873.039392	426.611614	-425.530308	754.8521	492.534984	-434.893405	683.653049	407.146181	-403.685367	763.735887	97.879969	-314.955925	989.9645400000001	64.33702599999999	-286.383332	913.621486	55.953611	-215.610804	524.299505	472.452131	-341.655482	540.186204	254.147099	-386.031177	510.225054	315.7574	-444.859663	918.418281	1529.67479	-448.510813	927.721775	1485.606047	-132.383768	992.3513830000001	1438.134019	-271.389698	885.153493	1535.157412	-287.739029	833.7282310000001	1495.658178	-456.405385	876.650096	1339.07013	-42.291233	790.663435	1298.539107	-46.869829	794.8158550000001	1245.338931	-0.073367	804.6573059999999	1180.511954	25.085243	766.487128	1165.484451	-52.484761	825.455094	1428.992518	-526.821367	752.7185050000001	1362.979557	-526.422941	762.553088	1330.534485	-594.512938	756.628988	1259.29037	-631.369468	714.7605610000001	1236.866901	-552.92781	849.0664379999999	1119.310872	1.29831	1027.555833	1123.734919	-94.549924	1006.498039	1059.750841	-81.379015	815.17169	1189.842182	-596.134103	960.8043269999999	1207.597489	-501.13176	959.831214	1145.729995	-532.517473	
83	1.28	939.558856	1009.822733	-427.123277	949.092716	1024.344357	-186.093228	773.732579	1048.070621	-352.120152	780.53011	1053.137428	-267.723289	908.269997	771.555973	-145.451187	993.997055	720.19992	-183.441839	946.956728	606.585155	-190.426195	873.821119	787.342579	-466.370031	973.692783	696.958109	-470.469178	949.166641	596.218698	-455.379817	973.226052	367.018376	-264.238495	920.2392579999999	322.955757	-217.874214	886.101662	203.097405	-268.892042	802.4666559999999	117.739305	-250.171622	824.197581	133.164551	-332.315564	895.072983	429.47444	-426.275942	775.3892080000001	492.242171	-435.758484	706.155785	404.716668	-405.556387	733.315377	98.506685	-314.399641	959.321407	64.315477	-285.375701	882.845784	55.899648	-214.870519	542.700611	465.160902	-345.218111	569.713805	247.611889	-387.5482	538.3230610000001	307.379035	-447.640204	915.309294	1528.117688	-449.401068	929.426834	1483.456107	-133.660111	992.123168	1436.187447	-273.779601	884.61724	1533.5131	-288.200375	830.151194	1495.032953	-455.211569	883.767378	1335.325356	-43.56379	799.150182	1290.817555	-45.759466	807.60009	1237.959014	1.348223	821.5138889999999	1173.410161	25.33498	779.7361529999999	1156.793136	-50.45043	818.838754	1428.526999	-524.761356	745.566181	1362.934188	-521.402028	752.282815	1332.299209	-590.84299	744.969643	1261.547618	-628.984453	705.707616	1238.269186	-550.17465	866.913503	1113.309238	-0.157554	1041.187818	1121.970001	-101.842425	1021.865083	1057.487366	-87.43006200000001	803.0606770000001	1189.628168	-597.9936750000001	951.875409	1200.489897	-507.471082	948.8315239999999	1140.14202	-542.043607	
84	1.29	937.173985	1011.766627	-427.493098	947.721139	1024.666285	-186.268469	772.383305	1049.370318	-351.310646	779.926371	1054.207945	-267.240525	900.0550459999999	770.168649	-144.892564	982.909264	714.365182	-181.501539	931.955651	602.92315	-189.30427	878.4362170000001	788.914428	-466.899573	984.689906	704.01546	-470.613012	964.26464	601.97965	-456.407356	950.342	361.892331	-262.291594	895.3852450000001	319.631922	-217.028335	858.445601	201.179524	-268.040758	772.560569	118.801722	-249.69573	794.959938	133.845815	-331.842009	916.759552	433.547222	-426.768437	794.926552	491.725427	-436.761647	728.659047	401.630685	-407.164214	702.977039	99.221367	-313.922106	928.645881	64.245439	-284.626883	852.150632	55.94987	-214.136366	561.172498	455.342218	-348.215407	600.776468	239.515955	-389.31724	566.636647	297.165493	-450.037843	911.405694	1528.816195	-450.004893	931.7118819999999	1483.589381	-135.030482	991.734176	1435.93553	-276.264843	883.63346	1533.276569	-288.62495	826.031528	1496.227769	-453.775212	890.303683	1334.408543	-44.637059	807.276429	1286.385267	-45.343437	819.687636	1233.838788	1.465781	836.425887	1169.545057	24.15057	791.884133	1152.049255	-50.303161	811.809203	1430.356153	-522.5720209999999	738.460724	1365.292817	-516.074026	742.18324	1336.231302	-586.669809	733.042057	1265.56356	-626.020392	696.923707	1242.109995	-546.273173	883.217292	1110.90303	-3.524192	1053.36875	1126.2642	-110.029496	1036.653117	1060.944866	-95.18151400000001	790.556133	1191.360717	-597.8965940000001	942.603021	1197.622381	-512.781809	937.368352	1138.368753	-548.9482379999999	
